# xmcd CD database file
#
# Track frame offsets:
#	150
#	39181
#	82948
#	109809
#
# Disc length: 2209 seconds
#
# Revision: 0
# Processed by: cddbd v1.5.2PL0 Copyright (c) Steve Scherf et al.
# Submitted via: CDex 1.70beta3
#
DISCID=21089f04
DTITLE=Sakamoto Teru Trio - 海を見ていたジョニー
DYEAR=1900
DGENRE=Jazz
TTITLE0=レフト・アローン
TTITLE1=マイ・フェイヴァリット・シングス
TTITLE2=夕やけ小やけ
TTITLE3=枯葉
EXTD=
EXTT0=
EXTT1=
EXTT2=
EXTT3=
PLAYORDER=
